<svg id="Layer_1" data-name="Layer 1" xmlns="http://www.w3.org/2000/svg" viewBox="0 0 200 26.81"><defs><style>.cls-1{fill:#222;}</style></defs><title>monsun_logo_full</title><path class="cls-1" d="M33.73,2H44.31l4,15.8,4-15.8H62.89V28H56.32V8.18l-5,19.8h-6l-5-19.8V28H33.73Z" transform="translate(0 -1.59)"/><path class="cls-1" d="M65.05,15q0-6.35,3.53-9.89t9.86-3.54q6.47,0,10,3.48t3.51,9.73a16,16,0,0,1-1.53,7.46A10.92,10.92,0,0,1,86,26.79a14.55,14.55,0,0,1-7.2,1.62A16.64,16.64,0,0,1,71.49,27a11,11,0,0,1-4.66-4.42A14.7,14.7,0,0,1,65.05,15Zm8,0q0,3.91,1.46,5.62a5.54,5.54,0,0,0,8,0c.94-1.12,1.41-3.12,1.41-6q0-3.64-1.47-5.33a5.07,5.07,0,0,0-4-1.68,4.88,4.88,0,0,0-3.89,1.71Q73.06,11.1,73.06,15.05Z" transform="translate(0 -1.59)"/><path class="cls-1" d="M94.4,2h7.48l9.75,14.34V2h7.59V28h-7.59l-9.7-14.27V28H94.4Z" transform="translate(0 -1.59)"/><path class="cls-1" d="M121.22,19.36l7.65-.47a5.83,5.83,0,0,0,1,2.82,4.25,4.25,0,0,0,3.54,1.57,3.9,3.9,0,0,0,2.65-.8,2.31,2.31,0,0,0,0-3.67,10.45,10.45,0,0,0-4.13-1.5c-3.52-.79-6-1.83-7.53-3.14a6.32,6.32,0,0,1-2.27-5,6.79,6.79,0,0,1,1.16-3.77,7.76,7.76,0,0,1,3.5-2.79,16.27,16.27,0,0,1,6.39-1q5,0,7.59,1.86a8,8,0,0,1,3.11,5.89l-7.59.45a4.05,4.05,0,0,0-1.27-2.57,4,4,0,0,0-2.66-.81,3.2,3.2,0,0,0-2.11.6,1.81,1.81,0,0,0-.71,1.44,1.45,1.45,0,0,0,.59,1.11,6.73,6.73,0,0,0,2.7.95,34.3,34.3,0,0,1,7.55,2.29,8,8,0,0,1,3.31,2.88,7.27,7.27,0,0,1,1,3.84,8.22,8.22,0,0,1-1.38,4.6,8.6,8.6,0,0,1-3.86,3.2,15.67,15.67,0,0,1-6.25,1.09c-4.42,0-7.47-.86-9.18-2.56A10,10,0,0,1,121.22,19.36Z" transform="translate(0 -1.59)"/><path class="cls-1" d="M163.72,2h8V17.47a13,13,0,0,1-.71,4.35,9.42,9.42,0,0,1-2.25,3.57,8.88,8.88,0,0,1-3.22,2.15,16.13,16.13,0,0,1-5.61.87,34.65,34.65,0,0,1-4.13-.27,11,11,0,0,1-3.75-1.05,9.42,9.42,0,0,1-2.75-2.24,8,8,0,0,1-1.71-3,15.35,15.35,0,0,1-.75-4.39V2h8v15.8A4.54,4.54,0,0,0,156,21.13a5.08,5.08,0,0,0,6.51,0,4.52,4.52,0,0,0,1.17-3.33Z" transform="translate(0 -1.59)"/><path class="cls-1" d="M175.18,2h7.48l9.75,14.34V2H200V28h-7.59l-9.7-14.27V28h-7.53Z" transform="translate(0 -1.59)"/><path class="cls-1" d="M0,1.88v26H26v-26ZM18.63,20.51H7.4V9.28H18.63Z" transform="translate(0 -1.59)"/></svg>